<?xml version="1.0" ?><svg id="Layer_1" style="enable-background:new 0 0 512 512;" version="1.1" viewBox="0 0 512 512" xml:space="preserve" xmlns="http://www.w3.org/2000/svg" xmlns:xlink="http://www.w3.org/1999/xlink"><g><g><path d="M418.8,47.1c-29-12.2-65.2-11-91.9,9.6L49.8,275.4c-27.9,21.7-39.5,56.5-33,88.9L418.8,47.1z"/><path d="M76.2,452.5c31.7,26.2,80.2,30.1,114.1,3.8l277.2-218.7c35-27.2,44.5-75.2,24.4-113L76.2,452.5z"/></g><g><path d="M23.9,426.3c25.7-20.3,14.4-34.7,40.1-55c25.7-20.3,37.1-5.9,62.8-26.2c25.7-20.3,14.4-34.7,40.1-55    c25.7-20.3,37.1-5.9,62.8-26.2c25.7-20.3,14.4-34.7,40.1-55c25.7-20.3,37.1-5.9,62.8-26.2c25.7-20.3,14.4-34.7,40.1-55    c25.7-20.3,37.1-5.9,62.8-26.2c25.7-20.3,14.4-34.7,40.1-55c1.9-1.5,3.7-2.8,5.4-3.9c-12.3-7.2-28.3-6.5-40.2,2.8L19.6,377.8    c-15.5,12.3-18.2,34.8-5.9,50.3l2.7,3.4C18.8,430.1,21.3,428.4,23.9,426.3z"/><path d="M488.1,62.3c-25.7,20.3-14.4,34.7-40.1,55c-25.7,20.3-37.1,5.9-62.8,26.2c-25.7,20.3-14.4,34.7-40.1,55    c-25.7,20.3-37.1,5.9-62.8,26.2c-25.7,20.3-14.4,34.7-40.1,55c-25.7,20.3-37.1,5.9-62.8,26.2c-25.7,20.3-14.4,34.7-40.1,55    c-25.7,20.3-37.1,5.9-62.8,26.2c-25.7,20.3-14.4,34.7-40.1,55c-1.9,1.5-3.7,2.8-5.4,3.9c12.3,7.2,28.3,6.5,40.2-2.8l421.2-332.3    c15.5-12.3,18.2-34.8,5.9-50.3l-2.7-3.4C493.2,58.5,490.7,60.2,488.1,62.3z"/></g></g></svg>